<?xml version="1.0" standalone="no"?>
<!DOCTYPE svg PUBLIC "-//W3C//DTD SVG 20010904//EN"
 "http://www.w3.org/TR/2001/REC-SVG-20010904/DTD/svg10.dtd">
<svg version="1.0" xmlns="http://www.w3.org/2000/svg"
 width="502.000000pt" height="502.000000pt" viewBox="0 0 502.000000 502.000000"
 preserveAspectRatio="xMidYMid meet">
<metadata>
Created by potrace 1.14, written by Peter Selinger 2001-2017
</metadata>
<g transform="translate(0.000000,502.000000) scale(0.100000,-0.100000)"
fill="#000000" stroke="none">
<path d="M2825 4799 c3 -3 -3 -13 -12 -20 -15 -12 -16 -12 -10 3 4 12 2 15 -8
11 -8 -3 -13 -8 -11 -12 3 -4 -6 -7 -19 -7 -13 0 -21 4 -19 8 3 5 10 5 16 2 6
-4 8 -2 5 4 -5 7 -14 7 -31 -1 -16 -8 -21 -14 -13 -19 9 -6 9 -8 0 -8 -6 0
-15 5 -18 10 -5 8 -11 8 -19 1 -7 -6 -16 -8 -19 -4 -4 3 -7 0 -7 -8 0 -11 -2
-11 -10 1 -8 12 -10 12 -10 1 0 -8 -7 -11 -19 -8 -14 3 -18 1 -14 -9 3 -8 -1
-14 -8 -14 -7 0 -21 -8 -32 -17 -11 -10 -17 -12 -13 -5 4 6 3 12 -3 12 -12 0
-41 -28 -41 -41 0 -6 -9 -5 -21 2 -15 8 -19 8 -15 0 4 -6 2 -11 -4 -11 -6 0
-8 -5 -4 -12 5 -8 2 -9 -10 -5 -13 5 -17 3 -13 -7 4 -10 1 -13 -7 -10 -8 3
-17 0 -22 -7 -4 -8 -3 -10 4 -5 7 4 12 2 12 -3 0 -6 -7 -11 -15 -11 -8 0 -15
-7 -15 -15 0 -8 -8 -15 -17 -16 -11 0 -13 -3 -5 -6 19 -7 4 -23 -16 -16 -15 6
-15 5 -3 -10 12 -15 11 -17 -3 -17 -9 0 -16 -5 -16 -11 0 -5 5 -7 10 -4 6 3
10 1 10 -4 0 -6 -5 -11 -11 -11 -5 0 -7 -5 -3 -12 5 -8 2 -9 -11 -4 -14 5 -16
4 -7 -7 14 -17 3 -31 -13 -17 -8 7 -12 5 -12 -4 0 -9 8 -13 24 -10 13 2 23 0
23 -5 0 -5 -8 -8 -17 -7 -10 2 -21 -2 -25 -7 -4 -6 -10 1 -13 16 -4 15 -12 27
-19 27 -6 0 -4 5 4 10 12 8 10 10 -9 10 -19 0 -21 3 -12 14 10 12 8 13 -8 9
-19 -5 -26 5 -22 30 1 5 -3 6 -9 2 -5 -3 -10 -1 -10 4 0 6 -3 10 -7 9 -17 -4
-52 14 -56 30 -4 14 -5 13 -6 -3 -2 -16 -5 -15 -17 10 -8 17 -12 22 -10 13 3
-10 0 -20 -7 -24 -7 -4 -9 -4 -5 1 9 10 -10 35 -26 35 -6 0 -4 -5 4 -11 12 -9
12 -10 -3 -5 -10 3 -21 6 -23 6 -3 0 -2 6 2 13 6 9 4 9 -8 -1 -13 -10 -18 -10
-24 -1 -5 8 -3 9 6 4 8 -5 11 -4 6 3 -7 12 -36 5 -49 -12 -5 -6 -5 0 -1 14 6
23 5 24 -10 11 -15 -12 -19 -13 -26 -1 -7 11 -11 11 -24 1 -11 -9 -16 -10 -16
-2 0 6 -5 11 -11 11 -5 0 -8 -4 -5 -8 6 -10 -24 -9 -41 1 -6 4 -14 3 -18 -3
-3 -5 -11 -10 -16 -10 -6 0 -8 4 -5 9 4 5 -2 8 -11 6 -10 -2 -21 -4 -25 -4 -5
-1 -8 -9 -8 -18 0 -14 -2 -15 -9 -4 -7 11 -9 11 -14 0 -4 -12 -7 -11 -16 1 -9
13 -11 12 -11 -4 0 -15 -3 -16 -14 -7 -10 8 -16 9 -21 1 -3 -6 -10 -8 -15 -5
-4 3 -14 -3 -21 -12 -12 -14 -12 -16 0 -8 10 5 12 4 7 -4 -4 -6 -13 -11 -19
-10 -41 5 -84 -22 -71 -43 4 -7 2 -8 -5 -4 -6 4 -8 12 -5 18 5 7 2 8 -5 4 -7
-5 -10 -14 -7 -21 3 -9 -2 -12 -15 -10 -11 2 -19 -2 -19 -10 0 -8 -5 -17 -12
-21 -7 -4 -8 -3 -4 4 5 8 1 10 -10 5 -15 -6 -15 -7 2 -20 18 -14 18 -14 -1
-11 -13 2 -19 -2 -17 -11 2 -11 0 -12 -11 -3 -12 10 -14 8 -12 -12 2 -17 -2
-23 -14 -22 -10 1 -17 -8 -19 -27 -2 -15 -7 -25 -12 -22 -5 3 -12 0 -16 -6 -4
-8 -3 -9 4 -5 19 11 14 -5 -5 -21 -17 -14 -17 -14 1 -9 15 5 17 4 8 -7 -7 -8
-8 -18 -4 -22 4 -5 2 -5 -4 -2 -7 4 -14 0 -18 -8 -3 -8 0 -14 6 -12 6 1 13 -5
15 -13 4 -13 3 -13 -6 0 -6 8 -11 11 -11 6 0 -5 -6 -3 -14 3 -11 9 -16 9 -22
0 -5 -8 -3 -9 6 -4 9 5 11 4 6 -4 -6 -9 -11 -9 -22 0 -10 8 -12 15 -4 23 5 5
10 15 10 20 0 6 -4 5 -9 -3 -7 -11 -13 -11 -32 3 -13 9 -19 16 -13 16 5 0 17
-6 24 -12 8 -7 8 -4 -2 6 -9 10 -29 19 -45 19 -15 0 -22 2 -15 4 6 3 12 9 12
14 0 6 -4 8 -9 5 -5 -4 -12 0 -14 6 -4 10 -6 9 -6 -1 -1 -10 -7 -7 -20 8 -22
26 -50 33 -69 18 -9 -7 -11 -6 -6 7 6 16 -6 22 -20 9 -10 -10 -46 -11 -40 -1
4 5 13 7 23 3 10 -4 13 -3 6 4 -12 11 -65 3 -65 -11 0 -5 -4 -6 -10 -3 -6 3
-10 11 -10 16 0 6 4 8 9 4 5 -3 12 -2 15 3 2 4 -16 8 -40 8 -36 0 -43 -4 -39
-16 3 -8 -4 -4 -15 10 -11 14 -18 18 -15 9 3 -9 -1 -21 -9 -28 -12 -10 -17 -8
-26 9 -9 17 -14 19 -26 10 -7 -7 -11 -16 -8 -21 3 -5 -2 -6 -10 -3 -8 3 -17
13 -19 22 -4 16 -5 16 -6 1 -1 -18 -31 -35 -31 -19 0 6 -5 10 -11 10 -5 0 -8
-4 -5 -9 3 -5 -4 -9 -17 -10 -57 -2 -64 -5 -60 -26 3 -11 1 -16 -4 -10 -10 12
-45 16 -38 5 3 -5 -4 -15 -15 -23 -11 -7 -17 -17 -12 -22 4 -4 -1 -5 -11 -2
-14 5 -20 2 -24 -13 -3 -11 -10 -17 -17 -13 -6 4 -5 -1 3 -10 8 -10 11 -20 7
-24 -3 -3 -6 -1 -6 5 0 6 -8 10 -19 9 -12 -1 -17 -7 -14 -18 5 -17 -24 -52
-36 -44 -5 2 -7 -7 -5 -21 2 -19 -1 -24 -12 -20 -8 3 -12 2 -9 -3 3 -5 1 -13
-5 -16 -8 -5 -7 -11 1 -21 9 -11 8 -14 -2 -14 -11 0 -11 -2 1 -10 11 -7 11
-10 2 -10 -7 0 -12 -6 -11 -12 3 -27 -1 -39 -13 -32 -6 4 -8 3 -5 -3 10 -16
16 -64 7 -58 -4 3 -10 -2 -13 -10 -4 -9 -1 -12 7 -9 7 3 13 -2 13 -10 0 -8 -6
-12 -14 -9 -15 6 -8 -21 11 -46 8 -11 8 -13 -1 -7 -9 5 -13 0 -13 -14 0 -12 4
-19 8 -16 4 2 9 -4 9 -15 1 -10 -3 -19 -8 -19 -6 0 -7 5 -3 12 4 7 3 8 -5 4
-8 -6 -9 -12 -2 -20 7 -9 7 -17 -2 -26 -6 -7 -7 -11 -2 -8 6 3 19 2 30 -3 18
-7 18 -8 -4 -8 -24 -1 -24 -1 -5 -16 19 -14 19 -14 -1 -15 -18 -1 -18 -2 -3
-11 17 -10 14 -37 -5 -50 -5 -4 1 -10 13 -14 17 -5 19 -9 9 -15 -10 -7 -10
-12 2 -26 9 -11 9 -15 2 -10 -7 4 -13 3 -13 -3 0 -5 5 -13 10 -16 8 -5 8 -11
1 -19 -6 -7 -8 -16 -4 -20 10 -10 13 -37 3 -31 -10 6 -8 -15 3 -32 5 -8 3 -13
-5 -13 -9 0 -9 -3 2 -10 13 -9 13 -10 0 -10 -12 0 -13 -2 -1 -9 11 -7 11 -9 0
-14 -11 -4 -11 -6 0 -6 11 -1 10 -5 -5 -16 -15 -12 -16 -14 -3 -15 16 0 23
-30 7 -30 -4 0 -8 -5 -8 -11 0 -5 6 -7 13 -3 7 5 7 1 -2 -10 -13 -15 -13 -19
0 -27 11 -7 11 -9 0 -9 -11 0 -11 -3 0 -17 11 -13 11 -15 1 -9 -10 6 -13 3
-10 -11 2 -11 -4 -28 -12 -38 -8 -11 -10 -16 -5 -13 6 4 17 3 25 -3 12 -7 11
-9 -5 -9 -17 0 -17 -2 -5 -10 13 -9 13 -10 0 -10 -11 -1 -10 -4 4 -15 18 -14
18 -15 2 -15 -9 0 -14 -5 -11 -10 4 -6 1 -18 -7 -27 -9 -12 -9 -15 0 -9 8 5
12 -1 12 -19 0 -15 -4 -24 -10 -20 -6 4 -7 11 -4 17 5 7 2 8 -5 4 -9 -6 -8
-13 6 -29 10 -11 12 -17 5 -13 -6 4 -12 2 -12 -3 0 -6 6 -11 14 -11 8 0 17 -4
20 -9 4 -5 -4 -7 -16 -5 -13 2 -17 2 -11 -2 8 -3 10 -12 5 -22 -5 -9 -8 -24
-7 -32 1 -8 -6 -24 -14 -35 -15 -18 -15 -19 2 -6 12 10 17 10 17 2 0 -7 5 -9
12 -5 7 4 8 3 4 -5 -4 -6 -12 -9 -17 -6 -5 4 -9 2 -9 -2 0 -5 9 -14 21 -21 16
-10 18 -16 9 -27 -6 -8 -8 -20 -4 -27 5 -10 4 -10 -6 -1 -10 9 -10 15 -1 26 9
12 8 16 -4 20 -11 5 -14 -1 -11 -26 2 -18 0 -37 -5 -43 -5 -7 -3 -11 6 -11 8
0 12 4 9 9 -3 4 2 5 11 1 12 -4 13 -8 5 -13 -7 -4 -10 -13 -6 -19 4 -7 1 -9
-7 -5 -8 3 -18 0 -22 -6 -3 -6 -3 -10 2 -9 4 1 17 1 28 -1 19 -1 19 -2 1 -9
-17 -7 -17 -8 -2 -24 16 -16 16 -17 -1 -18 -10 0 -13 -3 -6 -5 8 -4 9 -14 3
-35 -7 -24 -6 -28 3 -20 9 7 13 5 13 -10 0 -12 -5 -18 -13 -14 -11 4 -11 0 -1
-18 15 -27 19 -49 8 -42 -5 3 -12 1 -15 -5 -4 -6 -3 -9 2 -8 7 3 15 -7 12 -14
-6 -21 -5 -39 2 -44 6 -3 5 -12 -3 -22 -11 -13 -11 -15 3 -10 13 5 16 2 12
-13 -3 -10 -10 -19 -17 -19 -6 -1 0 -7 13 -14 20 -11 21 -14 7 -19 -11 -5 -15
-3 -10 5 4 7 3 8 -4 4 -6 -4 -9 -13 -6 -21 4 -8 10 -12 15 -9 5 3 6 -3 2 -12
-4 -10 -2 -15 4 -11 5 3 10 0 10 -8 0 -11 -5 -12 -21 -4 -18 9 -18 7 3 -10
l23 -21 -23 -1 -24 -1 25 -8 c14 -4 18 -9 10 -10 -11 -1 -9 -4 5 -10 19 -8 19
-9 1 -9 -19 -1 -19 -1 -1 -14 14 -11 15 -16 5 -22 -9 -6 -11 -4 -5 5 5 8 4 11
-3 6 -12 -7 -6 -31 12 -55 9 -12 8 -13 -4 -6 -13 8 -13 7 0 -10 15 -19 22 -67
8 -59 -14 9 -9 -7 8 -24 15 -15 15 -16 -2 -23 -16 -7 -15 -8 6 -9 14 -1 19 -4
12 -7 -6 -2 -9 -10 -5 -16 4 -7 0 -8 -11 -4 -10 4 -15 3 -11 -3 3 -6 13 -10
21 -10 17 0 18 -12 2 -28 -7 -7 -8 -12 -2 -12 5 0 11 -14 12 -31 2 -22 -1 -29
-10 -24 -7 4 1 -5 17 -20 17 -14 23 -25 15 -23 -9 2 -15 -1 -15 -7 0 -5 5 -10
10 -9 6 1 9 -13 7 -32 -3 -21 0 -34 7 -34 6 0 11 -5 11 -11 0 -5 -3 -8 -7 -6
-5 3 -9 -6 -9 -19 -2 -20 1 -23 12 -13 8 7 17 9 21 5 3 -3 0 -6 -7 -6 -7 0
-10 -3 -7 -7 4 -3 -1 -16 -10 -27 -10 -12 -11 -15 -3 -8 21 18 27 15 26 -15
-1 -16 2 -36 7 -47 6 -13 6 -16 -2 -12 -6 4 -11 2 -11 -3 0 -6 4 -11 9 -11 5
0 8 -11 7 -25 -2 -13 0 -22 5 -20 4 3 10 1 14 -5 3 -5 1 -10 -5 -10 -7 0 -8
-6 -1 -19 6 -10 7 -22 3 -26 -4 -5 1 -5 11 -2 10 4 16 3 12 -2 -3 -5 -1 -13 5
-16 8 -5 7 -11 -1 -21 -7 -9 -7 -14 -1 -14 5 0 9 -13 8 -29 -1 -17 2 -27 8
-24 5 4 7 -1 2 -12 -5 -15 -4 -16 8 -6 11 10 14 9 12 -1 -1 -7 -5 -19 -9 -25
-6 -9 -3 -11 9 -6 14 5 15 3 5 -15 -9 -18 -8 -25 9 -42 12 -12 15 -20 7 -20
-6 -1 -1 -8 13 -16 15 -9 18 -13 6 -9 -16 4 -17 3 -7 -9 7 -8 9 -21 5 -27 -4
-8 -3 -9 4 -5 20 12 35 -4 20 -22 -11 -13 -11 -14 1 -7 11 6 13 4 7 -10 -6
-16 -4 -16 10 -4 16 13 16 12 5 -10 -11 -19 -11 -22 0 -16 9 6 11 3 6 -9 -4
-9 -3 -14 2 -11 5 3 12 1 16 -5 4 -6 11 -7 17 -4 7 4 8 2 4 -4 -4 -6 -14 -8
-23 -5 -15 6 -16 5 -3 -9 8 -9 18 -14 22 -11 5 2 8 0 8 -6 0 -5 -6 -12 -12
-14 -11 -4 12 -10 32 -9 3 0 5 -10 5 -23 0 -13 -3 -21 -7 -18 -5 2 -8 2 -8 -2
0 -3 12 -10 26 -15 15 -6 25 -17 23 -27 -3 -31 1 -36 15 -24 12 10 14 8 12
-14 -2 -14 -1 -24 1 -21 8 7 63 -46 57 -55 -6 -11 31 -30 41 -21 3 4 5 2 4 -3
-2 -6 1 -20 5 -33 6 -17 13 -22 29 -18 12 3 16 3 10 0 -7 -3 -13 -12 -13 -20
0 -9 4 -12 10 -9 5 3 10 1 10 -5 0 -6 5 -8 12 -4 6 4 8 3 4 -4 -4 -6 8 -18 29
-28 28 -13 33 -19 24 -30 -8 -10 -6 -12 10 -9 23 4 29 -10 9 -19 -7 -3 0 -3
15 -1 23 3 26 1 18 -9 -8 -10 -5 -18 11 -32 12 -10 18 -13 14 -6 -4 6 -2 12 3
12 6 0 11 -8 11 -17 0 -15 2 -16 10 -3 8 13 10 13 10 -1 0 -20 27 -33 34 -16
2 7 5 1 5 -12 1 -16 6 -21 15 -18 20 8 38 -16 29 -39 -6 -17 -5 -17 9 -6 14
11 18 10 27 -6 6 -11 8 -21 6 -24 -3 -3 9 -4 25 -3 22 1 29 -2 26 -11 -3 -7 0
-16 6 -20 7 -4 8 -3 4 4 -4 7 -2 12 3 12 6 0 11 -5 11 -11 0 -5 5 -7 10 -4 6
3 10 1 10 -4 0 -6 -5 -11 -12 -11 -6 0 -9 -3 -6 -6 4 -3 17 0 30 7 12 6 20 8
16 4 -10 -10 17 -35 37 -35 12 0 15 -5 11 -16 -5 -14 -4 -15 9 -4 12 10 15 9
16 -6 0 -18 1 -18 8 0 7 19 8 19 14 -3 4 -16 11 -22 21 -18 9 4 16 1 16 -6 0
-8 4 -6 10 3 8 13 10 12 10 -2 0 -10 4 -18 10 -18 5 0 7 8 4 18 -4 11 -3 13 3
5 5 -7 19 -14 30 -16 12 -2 30 -10 40 -19 10 -8 25 -18 33 -22 9 -5 8 -2 -2 7
-10 8 -18 18 -18 22 0 4 6 2 14 -4 7 -6 22 -9 32 -5 16 5 16 4 4 -5 -11 -8
-12 -11 -2 -11 8 0 10 -5 6 -13 -5 -8 -2 -8 9 2 14 11 17 11 17 0 0 -11 2 -11
10 1 8 13 10 13 10 -2 0 -10 7 -16 19 -15 11 0 17 5 15 9 -3 5 -10 5 -16 2 -7
-5 -8 -2 -3 6 6 10 12 8 25 -8 13 -15 25 -20 45 -16 15 3 24 1 21 -5 -3 -5 3
-7 14 -4 11 3 28 2 37 -2 10 -4 25 -9 33 -10 8 -1 22 -6 31 -9 10 -4 20 -3 24
3 3 6 0 9 -7 6 -8 -3 -22 2 -33 10 -20 16 -19 16 2 6 12 -6 29 -8 37 -5 15 6
21 -5 17 -29 -1 -4 7 -4 16 1 24 12 83 13 83 2 0 -5 7 -7 15 -4 8 4 12 11 8
18 -3 6 4 1 16 -12 22 -22 37 -30 27 -13 -3 5 3 11 14 14 13 3 18 1 13 -6 -4
-6 1 -8 15 -5 16 4 19 2 16 -11 -3 -9 1 -6 8 7 15 25 30 20 21 -6 -4 -14 -3
-14 5 -3 6 8 15 10 23 5 10 -6 10 -3 -1 11 -14 17 -14 18 6 7 12 -6 32 -9 44
-7 13 3 29 0 37 -6 7 -7 13 -8 13 -3 0 11 75 12 86 1 5 -4 1 -5 -9 -1 -9 3
-17 2 -17 -4 0 -12 29 -9 38 4 8 11 43 11 60 0 6 -3 15 2 21 11 7 12 10 13 11
4 0 -11 3 -11 16 -1 8 8 14 9 13 4 -3 -19 1 -34 12 -34 5 0 8 4 5 9 -13 20 25
19 45 -2 13 -14 18 -16 14 -6 -9 23 22 33 34 11 8 -14 10 -14 11 -2 0 11 11
15 39 15 25 1 37 -3 34 -10 -2 -7 3 -12 11 -12 9 0 12 6 8 16 -5 14 -3 14 11
2 12 -9 17 -10 17 -2 0 9 5 9 22 0 18 -10 20 -9 14 6 -5 15 -4 16 9 5 8 -7 12
-17 8 -23 -3 -6 -1 -7 6 -3 6 4 9 12 6 17 -4 5 -3 9 2 10 4 0 18 2 31 3 17 2
21 -1 17 -13 -3 -11 0 -10 10 3 8 11 15 14 15 7 0 -7 5 -9 10 -6 6 4 7 11 4
17 -4 5 6 2 22 -8 27 -17 28 -17 15 -1 -8 10 -11 20 -7 24 3 3 6 2 6 -4 0 -6
9 -13 21 -16 15 -4 18 -2 10 7 -8 9 -7 13 4 13 8 0 15 -5 15 -11 0 -6 4 -5 9
3 5 8 19 12 34 9 19 -4 24 -1 20 9 -6 16 18 14 29 -2 4 -6 8 -2 8 8 0 10 5 15
10 12 6 -3 10 0 10 7 0 9 3 9 10 -2 7 -12 10 -12 10 -1 0 7 6 11 15 7 8 -3 15
-2 15 2 0 4 10 8 22 9 11 1 25 8 29 15 5 7 9 9 9 3 0 -5 5 -4 12 3 15 15 31
16 22 0 -4 -7 -3 -8 5 -4 9 6 9 11 0 22 -10 13 -8 13 16 4 26 -10 27 -9 14 7
-7 10 -9 15 -5 11 5 -4 16 -3 23 4 11 9 17 9 24 -3 7 -12 9 -11 9 2 0 9 8 23
18 30 16 13 16 13 2 -6 -14 -19 -14 -20 6 -2 11 9 25 14 29 10 5 -5 3 0 -4 9
-11 15 -10 17 8 13 12 -2 21 0 21 6 0 5 6 8 13 6 6 -1 11 4 10 10 -2 7 2 13 8
13 5 0 7 6 3 13 -5 7 0 6 11 -3 15 -12 17 -12 10 -1 -6 11 -4 13 7 8 10 -3 15
0 14 11 0 10 6 16 16 16 9 -1 19 5 22 13 4 9 2 11 -6 7 -7 -5 -8 -3 -4 5 5 7
14 10 21 7 7 -2 16 2 19 10 4 10 2 13 -7 8 -7 -5 -7 -1 2 10 8 9 21 14 29 11
10 -3 12 0 8 10 -3 10 1 15 14 15 10 0 22 5 26 12 4 7 3 8 -4 4 -7 -4 -12 -2
-12 3 0 10 20 15 41 13 4 -1 5 8 2 18 -4 17 -2 19 13 13 17 -6 17 -5 5 11 -12
14 -12 17 -1 14 7 -2 19 7 25 20 7 13 16 23 21 23 5 -1 9 4 9 11 0 6 6 13 14
16 9 3 11 0 6 -8 -5 -9 -4 -11 4 -6 6 4 9 12 6 17 -4 5 -1 9 5 9 6 0 8 5 5 10
-3 6 0 10 7 10 9 0 9 3 -2 10 -13 8 -13 10 2 10 9 0 20 5 24 12 5 7 3 8 -6 3
-9 -5 -11 -4 -6 3 4 7 15 12 24 12 15 0 15 2 2 10 -12 8 -10 10 9 10 20 0 21
2 11 15 -7 8 -10 16 -6 16 3 1 11 3 16 4 6 1 15 3 21 4 9 1 9 5 0 14 -8 11 -6
18 12 33 l22 19 -20 -25 c-12 -15 -14 -20 -4 -12 9 6 19 9 22 6 3 -4 4 5 1 20
-4 24 3 31 27 28 3 -1 5 9 4 22 -2 16 6 30 26 45 16 12 27 26 24 32 -4 5 -1 9
5 9 6 0 8 5 5 10 -3 6 0 10 7 10 9 0 9 3 -2 10 -13 9 -7 14 13 11 4 0 7 4 7 9
0 20 3 25 20 37 11 8 16 22 14 38 -2 21 0 24 11 15 11 -9 12 -7 7 12 -5 21 -4
22 13 8 17 -14 18 -14 6 8 -10 18 -9 23 4 28 8 3 15 15 15 25 0 10 5 19 11 19
5 0 7 5 3 12 -5 7 -2 9 8 6 8 -4 15 0 15 8 0 7 -4 11 -9 8 -4 -3 -8 0 -8 5 0
6 7 11 15 11 12 0 13 5 4 26 -9 25 -8 26 8 13 9 -8 14 -9 10 -2 -4 6 0 19 9
27 9 9 11 16 4 16 -6 0 -8 5 -5 10 4 6 12 7 18 4 9 -5 9 -4 1 6 -9 9 -8 16 7
31 11 11 16 25 12 35 -5 13 -3 15 8 9 11 -6 11 -5 2 5 -14 15 -6 40 13 40 8 0
11 6 7 17 -4 11 -3 14 5 9 19 -11 14 5 -5 20 -16 13 -15 14 9 10 20 -3 25 -1
21 10 -3 8 -10 11 -15 8 -6 -4 -5 3 1 15 7 11 14 21 17 21 3 0 2 -5 -2 -12 -4
-7 -3 -8 5 -4 9 6 9 11 0 23 -10 11 -10 16 0 23 9 5 10 10 2 14 -18 11 7 49
27 42 10 -4 7 3 -8 16 -15 13 -18 19 -8 15 10 -3 20 -2 23 3 4 6 3 10 -2 10
-4 0 -8 11 -8 24 0 17 4 22 15 18 13 -5 13 -3 2 10 -10 13 -10 18 -1 24 8 5 9
3 4 -6 -6 -9 -4 -11 5 -5 10 6 9 11 -6 23 -18 14 -18 14 4 9 19 -4 21 -3 11 9
-9 11 -7 15 7 21 17 6 17 7 0 13 -17 6 -17 7 -2 23 10 9 13 17 7 17 -6 0 -11
5 -11 11 0 5 4 8 9 5 5 -4 7 4 3 16 -3 12 -1 19 5 15 5 -3 10 0 10 8 0 8 -5
11 -11 8 -6 -3 -8 -3 -4 2 4 4 2 15 -5 23 -8 11 -8 14 0 9 7 -5 14 2 18 15 17
60 17 61 5 53 -10 -6 -10 -3 -2 11 8 14 7 23 -6 37 -15 17 -15 17 4 11 17 -7
18 -6 4 11 -9 11 -10 16 -2 11 15 -9 15 -1 1 26 -8 15 -8 19 0 14 6 -4 11 -3
11 3 0 5 -8 12 -17 14 -16 4 -16 5 1 6 15 1 16 4 6 16 -7 8 -8 15 -3 15 5 0 9
9 9 20 0 11 -4 20 -7 20 -4 0 -4 13 1 29 5 19 4 33 -3 40 -8 8 -8 11 1 11 7 0
12 5 12 11 0 6 -8 8 -17 5 -17 -6 -17 -5 -1 7 14 11 15 17 5 33 -15 22 -15 33
-3 53 6 10 5 12 -2 7 -12 -7 -13 -4 -16 67 -1 25 -6 32 -21 30 -20 -1 -20 -1
-1 13 19 14 19 14 -3 14 -21 0 -22 2 -10 17 10 11 10 14 2 9 -9 -5 -13 0 -13
13 0 12 -5 21 -11 21 -5 0 -7 -5 -3 -12 4 -7 3 -8 -5 -4 -9 6 -9 11 0 22 9 11
8 14 -2 14 -10 0 -11 3 -3 8 9 5 8 11 -2 20 -10 10 -14 10 -14 1 0 -7 -3 -9
-6 -6 -4 4 -2 13 5 20 9 11 4 20 -21 41 -17 14 -36 26 -41 26 -5 0 -3 8 4 17
10 11 10 14 2 9 -8 -4 -13 -2 -13 4 0 7 -9 9 -22 6 -13 -3 -17 -3 -10 0 6 3
12 12 12 20 0 9 -4 12 -10 9 -10 -6 -14 6 -11 35 1 9 -1 11 -6 5 -13 -18 -37
-11 -49 12 -6 13 -19 33 -30 45 -10 12 -13 18 -5 13 11 -6 13 -2 9 18 -4 18
-1 24 9 20 7 -3 13 1 14 8 1 8 2 27 3 42 0 15 8 32 16 37 14 9 7 15 -14 11 -5
-1 -4 4 2 12 7 8 9 17 5 21 -4 4 0 4 8 1 10 -4 16 0 16 10 0 8 -5 15 -11 15
-5 0 -1 7 10 16 10 8 14 13 8 10 -7 -3 -15 1 -18 10 -4 10 -2 13 6 8 7 -5 9 0
6 14 -5 16 -1 22 10 23 11 0 12 2 5 6 -14 5 -17 35 -5 47 9 9 11 56 2 51 -4
-2 -7 2 -7 10 0 8 4 12 8 10 4 -3 9 2 13 10 3 8 1 17 -5 21 -7 4 -6 10 1 19 7
9 6 16 -6 26 -14 12 -14 14 2 26 16 11 16 13 2 13 -9 0 -20 5 -24 12 -4 7 -3
8 4 4 7 -4 12 -2 12 4 0 6 6 8 13 5 6 -4 4 0 -6 8 -12 10 -14 16 -6 19 7 2 9
10 5 17 -5 7 -15 10 -23 7 -8 -4 -11 -1 -7 5 3 6 16 8 28 5 20 -5 20 -5 2 9
-20 15 -20 15 0 16 18 0 18 1 -1 9 -14 6 -15 9 -5 10 10 1 9 4 -5 10 -18 8
-19 9 -1 9 16 1 16 3 -5 22 -24 20 -24 20 -1 9 26 -13 29 -3 5 17 -10 8 -13
12 -7 9 7 -3 15 1 18 10 3 8 2 13 -3 10 -5 -3 -14 1 -20 8 -10 12 -8 13 8 9
13 -3 21 -1 21 6 0 7 -4 9 -10 6 -10 -6 -12 0 -14 40 -1 11 -5 26 -9 33 -5 7
-2 14 8 18 14 6 14 8 -2 21 -10 8 -12 12 -5 8 14 -7 17 21 2 30 -5 3 -7 12 -4
20 4 8 9 13 13 10 4 -2 8 2 8 10 0 8 -4 12 -9 9 -4 -3 -8 0 -8 5 0 6 5 11 12
11 6 0 4 6 -7 13 -12 10 -14 16 -7 21 7 4 12 12 12 17 0 6 -4 8 -8 5 -5 -3 -9
1 -9 9 0 8 4 12 9 9 4 -3 8 -1 8 5 0 5 -5 13 -10 16 -7 4 -7 12 0 25 15 28 12
34 -7 19 -17 -13 -17 -13 0 7 9 11 14 24 10 27 -9 10 -13 58 -4 53 4 -3 8 1 8
9 0 8 -4 12 -9 9 -13 -8 -10 10 5 25 10 11 9 12 -2 6 -10 -6 -12 -2 -6 14 4
13 2 21 -5 21 -6 0 -9 -4 -5 -9 3 -5 1 -12 -4 -16 -11 -6 -7 27 5 48 4 6 4 9
-1 5 -13 -12 -35 25 -24 39 7 7 6 14 -2 19 -8 5 -9 3 -4 -6 5 -8 4 -11 -3 -7
-5 4 -8 15 -5 25 3 12 -4 23 -19 30 -18 10 -18 11 -3 7 l20 -5 -20 16 c-11 8
-19 20 -17 26 2 6 -4 8 -14 4 -14 -6 -15 -4 -4 9 11 13 11 16 -1 13 -8 -2 -13
3 -11 11 3 12 1 12 -14 0 -12 -9 -15 -9 -10 -1 4 7 2 12 -4 12 -6 0 -8 5 -4
13 6 9 4 9 -8 -1 -14 -11 -18 -10 -28 8 -7 14 -17 19 -27 16 -14 -6 -14 -4 -2
11 8 9 9 14 2 10 -6 -4 -14 -1 -16 5 -4 10 -6 10 -6 1 -1 -7 -8 -10 -16 -7 -8
4 -12 11 -8 18 4 7 1 7 -9 -1 -18 -15 -29 -7 -21 15 4 13 2 12 -9 -2 -15 -19
-15 -19 -26 0 -9 14 -12 15 -12 4 -1 -10 -4 -9 -10 5 -8 18 -9 18 -9 2 -1 -17
-2 -17 -17 -3 -11 12 -20 13 -34 6 -16 -9 -18 -8 -14 5 5 13 2 14 -20 5 -14
-5 -26 -7 -26 -4 0 4 -8 0 -17 -7 -16 -13 -17 -12 -4 3 7 10 17 16 21 13 5 -3
11 -1 15 4 3 6 -4 8 -16 6 -13 -3 -29 1 -38 8 -12 10 -13 9 -6 -2 6 -11 4 -13
-8 -8 -9 3 -19 2 -22 -3 -3 -4 6 -7 20 -6 13 2 22 -1 19 -6 -3 -5 -12 -7 -20
-4 -8 3 -14 1 -14 -5 0 -5 -6 -4 -14 3 -8 7 -11 18 -8 23 3 6 -1 4 -10 -2 -8
-7 -19 -9 -23 -5 -5 4 -5 1 -1 -6 4 -7 12 -9 18 -6 6 4 8 3 5 -3 -7 -11 -36
-11 -55 1 -6 4 -12 3 -12 -3 0 -6 -7 -8 -15 -5 -9 4 -15 0 -15 -7 0 -11 -3
-11 -10 1 -8 12 -10 12 -10 1 0 -11 -3 -11 -15 -1 -13 11 -14 10 -10 -3 4 -8
1 -18 -6 -23 -8 -5 -10 -3 -4 7 6 11 5 12 -6 2 -16 -16 -33 -17 -23 -1 4 7 3
8 -4 4 -7 -4 -12 -15 -13 -24 0 -10 -3 -12 -5 -5 -6 13 -34 6 -34 -9 0 -5 5
-6 12 -2 7 4 8 3 4 -5 -4 -6 -11 -9 -16 -6 -5 3 -21 3 -35 -1 -20 -5 -23 -9
-13 -15 9 -6 7 -9 -10 -9 -15 0 -21 -4 -16 -12 5 -8 0 -9 -15 -5 -13 3 -20 3
-17 0 3 -4 0 -13 -6 -22 -10 -13 -10 -14 2 -3 8 6 19 12 24 12 6 0 0 -7 -12
-16 -12 -8 -27 -12 -34 -8 -6 4 -8 3 -5 -3 3 -5 -2 -15 -13 -23 -10 -7 -16
-19 -13 -27 8 -20 -11 -16 -27 6 -7 11 -17 18 -20 16 -4 -2 -6 6 -5 18 3 34
-5 49 -20 37 -9 -8 -12 -4 -10 15 2 14 -1 23 -6 19 -5 -3 -9 2 -9 10 0 8 -9
18 -20 21 -11 4 -18 11 -15 16 4 5 -5 9 -19 9 -16 0 -26 6 -26 14 0 18 -33 29
-62 21 -20 -5 -21 -4 -5 5 9 6 17 16 17 23 0 8 -3 8 -9 -2 -6 -9 -10 -10 -16
-2 -5 9 -10 9 -20 1 -11 -9 -13 -6 -9 12 2 13 2 17 -2 11 -7 -15 -34 -17 -34
-3 0 6 -9 10 -21 10 -13 0 -18 4 -13 13 5 7 0 6 -11 -3 -17 -13 -18 -13 -13 1
4 9 1 16 -8 16 -7 0 -11 -4 -9 -8 3 -4 -2 -9 -10 -13 -8 -3 -17 0 -21 6 -5 7
-2 8 6 3 9 -5 11 -4 6 4 -5 7 -12 9 -19 3 -23 -16 -84 -2 -73 17 3 4 -1 8 -9
8 -8 0 -12 -4 -10 -8z m19 -25 c3 -8 2 -12 -4 -9 -6 3 -10 10 -10 16 0 14 7
11 14 -7z m-1044 -150 c0 -8 -5 -12 -10 -9 -6 4 -8 11 -5 16 9 14 15 11 15 -7z
m-625 -244 c3 -5 1 -10 -4 -10 -6 0 -11 5 -11 10 0 6 2 10 4 10 3 0 8 -4 11
-10z m-501 -38 c3 -5 -1 -9 -9 -9 -8 0 -12 4 -9 9 3 4 7 8 9 8 2 0 6 -4 9 -8z
m3601 -1282 c3 -5 1 -10 -4 -10 -6 0 -11 5 -11 10 0 6 2 10 4 10 3 0 8 -4 11
-10z m-3796 -93 c8 -10 7 -14 -2 -14 -8 0 -14 6 -14 14 0 7 1 13 2 13 2 0 8
-6 14 -13z m236 -1627 c-3 -5 -1 -10 5 -10 6 0 8 -5 4 -11 -4 -8 -9 -7 -15 2
-7 12 -3 29 7 29 3 0 2 -4 -1 -10z m3535 -136 c0 -8 -19 -13 -24 -6 -3 5 1 9
9 9 8 0 15 -2 15 -3z m-76 -125 c-3 -5 -10 -7 -15 -3 -5 3 -7 10 -3 15 3 5 10
7 15 3 5 -3 7 -10 3 -15z m-2954 -435 c0 -8 -19 -13 -24 -6 -3 5 1 9 9 9 8 0
15 -2 15 -3z"/>
<path d="M2890 4799 c0 -5 -4 -8 -9 -4 -5 3 -12 2 -15 -3 -2 -4 6 -8 19 -8 15
0 21 5 18 13 -6 16 -13 17 -13 2z"/>
<path d="M2575 4740 c-4 -6 -11 -7 -17 -4 -7 4 -8 2 -4 -5 6 -9 11 -9 22 0 14
11 18 19 10 19 -3 0 -8 -5 -11 -10z"/>
<path d="M2490 4700 c0 -5 5 -10 11 -10 5 0 7 5 4 10 -3 6 -8 10 -11 10 -2 0
-4 -4 -4 -10z"/>
<path d="M4136 4635 c4 -8 8 -15 10 -15 2 0 4 7 4 15 0 8 -4 15 -10 15 -5 0
-7 -7 -4 -15z"/>
<path d="M4285 4440 c3 -5 8 -10 11 -10 2 0 4 5 4 10 0 6 -5 10 -11 10 -5 0
-7 -4 -4 -10z"/>
<path d="M900 4414 c0 -8 5 -12 10 -9 6 4 8 11 5 16 -9 14 -15 11 -15 -7z"/>
<path d="M526 4233 c-6 -14 -5 -15 5 -6 7 7 10 15 7 18 -3 3 -9 -2 -12 -12z"/>
<path d="M4334 3900 c0 -13 4 -16 10 -10 7 7 7 13 0 20 -6 6 -10 3 -10 -10z"/>
<path d="M4307 3199 c7 -7 15 -10 18 -7 3 3 -2 9 -12 12 -14 6 -15 5 -6 -5z"/>
<path d="M4300 3041 c0 -6 4 -13 10 -16 6 -3 7 1 4 9 -7 18 -14 21 -14 7z"/>
<path d="M4563 2576 c0 -8 6 -12 14 -9 7 3 10 9 7 14 -8 14 -21 11 -21 -5z"/>
<path d="M505 2160 c3 -5 8 -10 11 -10 2 0 4 5 4 10 0 6 -5 10 -11 10 -5 0 -7
-4 -4 -10z"/>
<path d="M4565 2120 c-3 -5 -1 -10 4 -10 6 0 11 5 11 10 0 6 -2 10 -4 10 -3 0
-8 -4 -11 -10z"/>
<path d="M4485 1780 c-3 -5 -1 -10 4 -10 6 0 11 5 11 10 0 6 -2 10 -4 10 -3 0
-8 -4 -11 -10z"/>
<path d="M4426 1592 c-3 -5 1 -9 9 -9 8 0 12 4 9 9 -3 4 -7 8 -9 8 -2 0 -6 -4
-9 -8z"/>
<path d="M630 1506 c0 -2 7 -7 16 -10 8 -3 12 -2 9 4 -6 10 -25 14 -25 6z"/>
<path d="M946 885 c4 -8 11 -15 16 -15 6 0 5 6 -2 15 -7 8 -14 15 -16 15 -2 0
-1 -7 2 -15z"/>
<path d="M996 827 c3 -10 9 -15 12 -12 3 3 0 11 -7 18 -10 9 -11 8 -5 -6z"/>
<path d="M1313 545 c0 -8 4 -12 9 -9 5 3 6 10 3 15 -9 13 -12 11 -12 -6z"/>
<path d="M2434 222 c4 -3 14 -7 22 -8 9 -1 13 0 10 4 -4 3 -14 7 -22 8 -9 1
-13 0 -10 -4z"/>
<path d="M2515 220 c-3 -5 -1 -10 4 -10 6 0 11 5 11 10 0 6 -2 10 -4 10 -3 0
-8 -4 -11 -10z"/>
<path d="M2615 219 c-4 -6 -4 -13 -1 -16 3 -4 6 -1 6 6 0 7 5 9 12 5 7 -4 8
-3 4 4 -9 15 -13 15 -21 1z"/>
<path d="M2671 214 c0 -11 3 -14 6 -6 3 7 2 16 -1 19 -3 4 -6 -2 -5 -13z"/>
</g>
</svg>
